<svg width="266" height="64" viewBox="0 0 266 64" fill="none" xmlns="http://www.w3.org/2000/svg">
<path d="M28.729 29.7989C28.729 36.7377 23.8459 41.0349 13.8523 41.0349C9.2087 41.002 4.58589 40.4107 0.0834961 39.2738L2.00473 33.3244C4.47351 33.9295 9.36944 34.9766 13.7402 34.9766C19.1293 34.9766 21.4252 33.1034 21.4252 29.3602V28.0794C21.4252 24.0032 19.7409 23.0682 15.4181 23.0682H10.5958C3.23111 23.0682 0.432518 18.9375 0.432518 12.6039V11.4447C0.432518 4.40024 4.91539 0.596207 12.3345 0.596207H13.6826C18.3457 0.657186 22.9989 1.04344 27.6083 1.75215L26.2603 7.65352C22.0976 7.04513 16.9967 6.60645 14.3006 6.60645H12.8405C8.96598 6.60645 7.61792 8.36758 7.61792 11.4095V12.4022C7.61792 14.9894 8.40562 16.4207 11.9407 16.4207H17.2209C24.8546 16.4207 28.729 19.5075 28.729 27.218V29.7989Z" fill="white"/>
<path d="M52.5654 6.40151L53.0874 6.72172C55.0385 7.87873 56.9853 9.04107 58.9279 10.2088V6.3727C56.8081 6.38977 54.6873 6.39938 52.5654 6.40151Z" fill="white"/>
<path d="M58.9277 31.1214V25.9981C56.7609 24.7621 54.5974 23.5208 52.4371 22.2741L49.7954 20.7307V25.9052C52.8534 27.6215 55.8793 29.3698 58.9277 31.1214Z" fill="white"/>
<path d="M56.8783 35.3192C54.5046 33.9786 52.1436 32.6306 49.7954 31.275V35.3288C52.1585 35.3203 54.5195 35.3171 56.8783 35.3192Z" fill="white"/>
<path d="M52.2639 16.7313C54.4904 17.9951 56.7116 19.2684 58.9274 20.5514V15.5626C57.448 14.7087 55.9698 13.8548 54.4925 13.0009C52.9257 12.098 51.3609 11.1918 49.7983 10.2824V15.3032L52.2031 16.6897L52.2639 16.7313Z" fill="white"/>
<path d="M109.674 0.609005L98.8191 25.966L87.9001 0.609005H81.1758C82.0916 2.6391 83.0031 4.66707 83.9103 6.6929C85.7248 10.7488 87.5233 14.8144 89.3058 18.8895L96.3503 34.7461H100.977L111.406 11.4191V40.9548H118.057V0.609005H109.674Z" fill="white"/>
<path d="M138.24 40.9548V0.609005H153.955C163.606 0.609005 166.921 3.14503 166.921 11.5984V15.7611C166.921 23.1995 163.216 26.2414 154.292 26.2414H145.48V40.9548H138.24ZM159.626 11.5984C159.626 7.75598 158.842 6.5264 153.565 6.5264H145.48V20.3304H153.562C158.726 20.3304 159.623 19.2609 159.623 15.6554L159.626 11.5984Z" fill="white"/>
<path d="M187.23 40.9548V0.609005H195.719V34.9254H216.048V40.9548H187.23Z" fill="white"/>
<path d="M265.041 0.609005H236.222V6.71211H265.041V0.609005Z" fill="white"/>
<path d="M265.041 17.8232H236.222V23.8495H265.041V17.8232Z" fill="white"/>
<path d="M265.041 34.935H236.222V40.9548H265.041V34.935Z" fill="white"/>
<path d="M59.8176 0.609005H48.9019V6.44954H59.8176V0.609005Z" fill="white"/>
<path d="M59.8176 35.2936H48.9019V40.9516H59.8176V35.2936Z" fill="white"/>
<path d="M152.968 62.4086H147.022V58.787H147.045C147.045 58.643 147.045 58.4989 147.045 58.358C147.045 58.3003 147.045 57.8809 147.045 57.5318V53.9776H152.991V52.5783H145.946V63.7854H152.991C152.972 63.3436 152.968 62.8761 152.968 62.4086Z" fill="white"/>
<path d="M152.962 57.5831H146.987V58.9312H152.962V57.5831Z" fill="white"/>
<path d="M82.6898 61.1438H76.9261L75.8502 63.8047H74.6719L79.254 52.5783H80.4644L85.0369 63.8047H83.7561L82.6898 61.1438ZM82.1871 59.8821L79.824 54.0128H79.7984L77.4352 59.8821H82.1871Z" fill="white"/>
<path d="M93.2603 58.2267C93.2603 55.0855 94.8389 52.3733 97.788 52.3733C100.929 52.3733 102.027 54.983 102.027 56.7762V56.9299H101.028V56.8626C101.04 56.4437 100.964 56.027 100.806 55.6389C100.647 55.2509 100.41 54.9 100.109 54.6085C99.8081 54.317 99.4496 54.0914 99.0566 53.9458C98.6637 53.8003 98.2447 53.738 97.8264 53.763C95.5529 53.763 94.3297 55.6394 94.3297 58.2171C94.3297 60.4361 95.348 62.6007 97.8712 62.6007C100.033 62.6007 101.073 61.0989 101.073 59.5459V59.4627H102.079V59.5972C102.079 61.6465 100.798 64 97.8712 64C94.4834 64.0096 93.2603 61.0253 93.2603 58.2267Z" fill="white"/>
<path d="M118.32 61.1438H112.556L111.483 63.8047H110.314L114.887 52.5783H116.097L120.67 63.8047H119.389L118.32 61.1438ZM117.817 59.8821L115.451 54.0128H115.438L113.071 59.8821H117.817Z" fill="white"/>
<path d="M129.206 52.5783H132.796C136.337 52.5783 137.365 55.3096 137.365 58.1915C137.365 61.7137 136.164 63.8047 133.103 63.8047H129.206V52.5783ZM133.065 62.4086C135.36 62.4086 136.267 61.0093 136.267 58.1947C136.267 55.8732 135.511 53.9808 132.77 53.9808H130.263V62.4086H133.065Z" fill="white"/>
<path d="M161.749 52.5783H163.542L166.833 61.9635L170.115 52.5783H171.886V63.8047H170.833V53.7214L167.243 63.8047H166.433L162.821 53.7214H162.799V63.8047H161.771L161.749 52.5783Z" fill="white"/>
<path d="M184.787 59.1649L180.362 52.5783H181.883L185.37 57.8168H185.392L188.854 52.5783H190.295L185.86 59.1649V63.8047H184.787V59.1649Z" fill="white"/>
</svg>
